<svg class="home__blob" viewBox="0 0 200 187" xmlns="http://www.w3.org/2000/svg" xmlns:xlink="http://www.w3.org/1999/xlink">
    <mask id="mask0" mask-type="alpha">
        <path d="M190.312 36.488c16.27 25.631 10.997 66.338-7.984 97.698s-51.521 53.373-82.102 52.167c-30.581-1.056-59.203-25.33-78.486-56.991C2.458 97.851-7.485 59.103 6.676 34.528 20.987 10.103 59.703-.149 97.967.002c38.263.302 76.226 10.855 92.345 36.486z" />
    </mask>
    <g mask="url(#mask0)">
        <path d="M190.312 36.488c16.27 25.631 10.997 66.338-7.984 97.698s-51.521 53.373-82.102 52.167c-30.581-1.056-59.203-25.33-78.486-56.991C2.458 97.851-7.485 59.103 6.676 34.528 20.987 10.103 59.703-.149 97.967.002c38.263.302 76.226 10.855 92.345 36.486z" />
        <image loading="eager" class="home__blob-img" x="16" y="16" xlink:href="assets/img/perfil.webp"/>
    </g>
</svg>